<mxfile host="app.diagrams.net" modified="2022-11-23T04:29:38.498Z" agent="5.0 (Macintosh; Intel Mac OS X 10_15_7) AppleWebKit/537.36 (KHTML, like Gecko) Chrome/107.0.0.0 Safari/537.36" version="20.6.0" etag="mGCAvfmsCPSe4bWZ3JzJ" type="github">
  <diagram id="dvZor4a739gt4BnEb0jh" name="Page-1">
    <mxGraphModel dx="1577" dy="1022" grid="1" gridSize="10" guides="1" tooltips="1" connect="1" arrows="1" fold="1" page="1" pageScale="1" pageWidth="827" pageHeight="1169" math="0" shadow="0">
      <root>
        <mxCell id="0" />
        <mxCell id="1" parent="0" />
        <UserObject label="" lucidchartObjectId="MXm-I3CPwiWs" id="2fJ8lrKolZrC7D9zkcL9-1">
          <mxCell style="html=1;overflow=block;blockSpacing=1;whiteSpace=wrap;shape=mxgraph.aws4.users;labelPosition=center;verticalLabelPosition=bottom;align=center;verticalAlign=top;pointerEvents=1;fontSize=13;spacing=0;strokeOpacity=100;fillOpacity=100;fillColor=#666666;strokeWidth=1.5;strokeColor=none;" vertex="1" parent="1">
            <mxGeometry x="76" y="451" width="57" height="57" as="geometry" />
          </mxCell>
        </UserObject>
        <UserObject label="&lt;div style=&quot;display: flex; justify-content: center; text-align: center; align-items: baseline; font-size: 0; line-height: 1.25;margin-top: -2px;&quot;&gt;&lt;span&gt;&lt;span style=&quot;font-size:13.3px;color:#666666;font-weight: bold;&quot;&gt;VPC&#xa;&lt;/span&gt;&lt;/span&gt;&lt;/div&gt;&lt;div style=&quot;display: flex; justify-content: flex-start; text-align: left; align-items: baseline; font-size: 0; line-height: 1.25;margin-top: -2px;&quot;&gt;&lt;span&gt;&lt;span style=&quot;font-size:13px;color:#666666;&quot;&gt;&lt;span style=&quot;font-size:11.7px;color:#666666;&quot;&gt;10.0.0.0/16&lt;/span&gt;&lt;/span&gt;&lt;/span&gt;&lt;/div&gt;" lucidchartObjectId="MXm-Ot4Srksy" id="2fJ8lrKolZrC7D9zkcL9-2">
          <mxCell style="html=1;overflow=block;blockSpacing=1;whiteSpace=wrap;shape=mxgraph.aws4.group;grIcon=mxgraph.aws4.group_vpc;verticalAlign=top;align=left;grIconSize=40;spacingLeft=45;spacingTop=5;fontColor=#2C8723;container=1;pointerEvents=0;collapsible=0;recursiveResize=0;fontSize=13;spacing=0;strokeColor=#248814;strokeOpacity=100;fillOpacity=0;fillColor=#000000;strokeWidth=1.5;" vertex="1" parent="1">
            <mxGeometry x="600" y="270" width="616" height="570" as="geometry" />
          </mxCell>
        </UserObject>
        <UserObject label="AWS Cloud" lucidchartObjectId="MXm-eiOVp4B~" id="2fJ8lrKolZrC7D9zkcL9-3">
          <mxCell style="html=1;overflow=block;blockSpacing=1;whiteSpace=wrap;shape=mxgraph.aws4.group;grIcon=mxgraph.aws4.group_aws_cloud_alt;verticalAlign=top;align=left;grIconSize=40;spacingLeft=45;spacingTop=5;container=1;pointerEvents=0;collapsible=0;recursiveResize=0;fontSize=13.3;fontColor=#666666;fontStyle=1;spacing=0;strokeColor=#232f3e;strokeOpacity=100;fillOpacity=0;fillColor=#000000;strokeWidth=1.5;" vertex="1" parent="1">
            <mxGeometry x="181" y="180" width="1065" height="750" as="geometry" />
          </mxCell>
        </UserObject>
        <UserObject label="Internet Gateway" lucidchartObjectId="dPQFh_fOn6nY" id="2fJ8lrKolZrC7D9zkcL9-4">
          <mxCell style="html=1;overflow=block;blockSpacing=1;whiteSpace=wrap;shape=mxgraph.aws4.internet_gateway;labelPosition=center;verticalLabelPosition=bottom;align=center;verticalAlign=top;pointerEvents=1;fontSize=13.3;fontColor=#666666;spacing=0;strokeOpacity=100;fillColor=#693cc5;strokeWidth=1.5;strokeColor=none;" vertex="1" parent="1">
            <mxGeometry x="570" y="515" width="50" height="50" as="geometry" />
          </mxCell>
        </UserObject>
        <mxCell id="2fJ8lrKolZrC7D9zkcL9-5" value="" style="group;dropTarget=0;pointerEvents=0;" vertex="1" parent="1">
          <mxGeometry x="340" y="60" width="640" height="45" as="geometry" />
        </mxCell>
        <UserObject label="%filename%" placeholders="1" lucidchartObjectId="7SQFm34YwSV7" id="2fJ8lrKolZrC7D9zkcL9-6">
          <mxCell style="points=[[0.262,0.967,0],[0.742,0.967,0]];html=1;overflow=block;blockSpacing=1;whiteSpace=wrap;fontSize=19.7;fontColor=#b2b2b2;fontStyle=1;align=center;spacingLeft=7;spacingRight=7;spacingTop=2;spacing=3;strokeOpacity=0;fillOpacity=0;rounded=1;absoluteArcSize=1;arcSize=12;fillColor=#ffffff;strokeWidth=1.5;" vertex="1" parent="2fJ8lrKolZrC7D9zkcL9-5">
            <mxGeometry width="640" height="31" as="geometry" />
          </mxCell>
        </UserObject>
        <UserObject label="%creatorName%  |  %date{mmmm d, yyyy}%" placeholders="1" lucidchartObjectId="7SQFHfnedZkg" id="2fJ8lrKolZrC7D9zkcL9-7">
          <mxCell style="html=1;overflow=block;blockSpacing=1;whiteSpace=wrap;fontSize=11.5;fontColor=#b2b2b2;align=center;spacingLeft=7;spacingRight=7;spacingTop=2;spacing=3;strokeOpacity=0;fillOpacity=0;rounded=1;absoluteArcSize=1;arcSize=12;fillColor=#ffffff;strokeWidth=1.5;" vertex="1" parent="2fJ8lrKolZrC7D9zkcL9-5">
            <mxGeometry y="31" width="640" height="14" as="geometry" />
          </mxCell>
        </UserObject>
        <UserObject label="" lucidchartObjectId="7SQFxdvc~xm6" id="2fJ8lrKolZrC7D9zkcL9-8">
          <mxCell style="html=1;jettySize=18;whiteSpace=wrap;fontSize=13;fontFamily=Helvetica;strokeColor=#b2b2b2;strokeOpacity=100;strokeWidth=1.5;rounded=0;startArrow=none;endArrow=none;exitX=0.262;exitY=0.967;exitPerimeter=0;entryX=0.742;entryY=0.967;entryPerimeter=0;" edge="1" parent="2fJ8lrKolZrC7D9zkcL9-5" source="2fJ8lrKolZrC7D9zkcL9-6" target="2fJ8lrKolZrC7D9zkcL9-6">
            <mxGeometry width="100" height="100" relative="1" as="geometry">
              <Array as="points">
                <mxPoint x="168" y="50" generated="1" />
                <mxPoint x="475" y="50" generated="1" />
              </Array>
            </mxGeometry>
          </mxCell>
        </UserObject>
        <mxCell id="2fJ8lrKolZrC7D9zkcL9-9" value="Generic Group" style="html=1;overflow=block;blockSpacing=1;whiteSpace=wrap;verticalAlign=top;align=center;container=1;pointerEvents=0;collapsible=0;recursiveResize=0;fontSize=13;fontColor=default;spacing=0;strokeColor=none;strokeOpacity=0;fillOpacity=13;fillColor=#5a6c86;strokeWidth=0;" vertex="1" parent="1">
          <mxGeometry x="225" y="390" width="240" height="300" as="geometry" />
        </mxCell>
        <UserObject label="Amazon CloudFront" lucidchartObjectId="PG--PZDK8GW-" id="2fJ8lrKolZrC7D9zkcL9-10">
          <mxCell style="html=1;overflow=block;blockSpacing=1;whiteSpace=wrap;shape=mxgraph.aws4.resourceIcon;resIcon=mxgraph.aws4.cloudfront;labelPosition=center;verticalLabelPosition=bottom;align=center;verticalAlign=top;strokeColor=#ffffff;pointerEvents=1;fontSize=13;fontFamily=Lucid JP;fontColor=default;spacing=0;strokeOpacity=0;fillColor=#693cc5;strokeWidth=1.5;" vertex="1" parent="2fJ8lrKolZrC7D9zkcL9-9">
            <mxGeometry y="38" width="71" height="71" as="geometry" />
          </mxCell>
        </UserObject>
        <UserObject label="CloudFront Edge Location" lucidchartObjectId="WJ--_7iSeVJU" id="2fJ8lrKolZrC7D9zkcL9-11">
          <mxCell style="html=1;overflow=block;blockSpacing=1;whiteSpace=wrap;fontSize=13;spacing=0;strokeOpacity=0;fillColor=#4D27AA;strokeWidth=1.5;" vertex="1" parent="2fJ8lrKolZrC7D9zkcL9-9">
            <mxGeometry x="55" y="166" width="90" height="90" as="geometry" />
          </mxCell>
        </UserObject>
        <UserObject label="" lucidchartObjectId="sL--oC9lH~bB" id="2fJ8lrKolZrC7D9zkcL9-12">
          <mxCell style="html=1;jettySize=18;whiteSpace=wrap;fontSize=13;strokeColor=#666666;strokeOpacity=100;strokeWidth=0.8;rounded=1;arcSize=24;edgeStyle=orthogonalEdgeStyle;startArrow=none;endArrow=block;endFill=1;exitX=1;exitY=0.5;exitPerimeter=0;entryX=0;entryY=0.5;entryPerimeter=0;" edge="1" parent="1" source="2fJ8lrKolZrC7D9zkcL9-9" target="2fJ8lrKolZrC7D9zkcL9-4">
            <mxGeometry width="100" height="100" relative="1" as="geometry">
              <Array as="points" />
            </mxGeometry>
          </mxCell>
        </UserObject>
        <UserObject label="" lucidchartObjectId="LO--JOKYJdu-" id="2fJ8lrKolZrC7D9zkcL9-13">
          <mxCell style="html=1;jettySize=18;whiteSpace=wrap;fontSize=13;strokeColor=#666666;strokeOpacity=100;strokeWidth=0.8;rounded=1;arcSize=24;edgeStyle=orthogonalEdgeStyle;startArrow=none;endArrow=block;endFill=1;exitX=0.5;exitY=1;exitPerimeter=0;entryX=0;entryY=0.5;entryPerimeter=0;" edge="1" parent="1" source="2fJ8lrKolZrC7D9zkcL9-1" target="2fJ8lrKolZrC7D9zkcL9-9">
            <mxGeometry width="100" height="100" relative="1" as="geometry">
              <Array as="points" />
            </mxGeometry>
          </mxCell>
        </UserObject>
        <UserObject label="エッジロケーションにキャッシュされていない場合" lucidchartObjectId="1O--XSEt0mpo" id="2fJ8lrKolZrC7D9zkcL9-14">
          <mxCell style="html=1;overflow=block;blockSpacing=1;whiteSpace=wrap;fontSize=13;fontFamily=Lucid JP;fontColor=default;align=center;spacing=3.8;strokeOpacity=0;fillOpacity=0;fillColor=#ffffff;strokeWidth=1.5;" vertex="1" parent="1">
            <mxGeometry x="435" y="465" width="180" height="47" as="geometry" />
          </mxCell>
        </UserObject>
        <UserObject label="Amazon Simple Storage Service (S3)" lucidchartObjectId="CQ--46~Xb2Sc" id="2fJ8lrKolZrC7D9zkcL9-15">
          <mxCell style="html=1;overflow=block;blockSpacing=1;whiteSpace=wrap;shape=mxgraph.aws4.resourceIcon;resIcon=mxgraph.aws4.s3;labelPosition=center;verticalLabelPosition=bottom;align=center;verticalAlign=top;strokeColor=#ffffff;pointerEvents=1;fontSize=13;fontFamily=Lucid JP;fontColor=default;spacing=0;strokeOpacity=0;fillColor=#3f8624;strokeWidth=1.5;" vertex="1" parent="1">
            <mxGeometry x="890" y="622" width="90" height="90" as="geometry" />
          </mxCell>
        </UserObject>
        <UserObject label="" lucidchartObjectId="LQ--tepJo2Bj" id="2fJ8lrKolZrC7D9zkcL9-16">
          <mxCell style="html=1;jettySize=18;whiteSpace=wrap;fontSize=13;strokeColor=#666666;strokeOpacity=100;strokeWidth=0.8;rounded=1;arcSize=24;edgeStyle=orthogonalEdgeStyle;startArrow=none;endArrow=block;endFill=1;exitX=1;exitY=0.5;exitPerimeter=0;" edge="1" parent="1" source="2fJ8lrKolZrC7D9zkcL9-4">
            <mxGeometry width="100" height="100" relative="1" as="geometry">
              <Array as="points" />
              <mxPoint x="890" y="470" as="targetPoint" />
            </mxGeometry>
          </mxCell>
        </UserObject>
        <UserObject label="またはS3 Bucket" lucidchartObjectId=".Q--izZ.aKl4" id="2fJ8lrKolZrC7D9zkcL9-17">
          <mxCell style="html=1;overflow=block;blockSpacing=1;whiteSpace=wrap;fontSize=13;fontFamily=Lucid JP;fontColor=default;align=center;spacing=3.8;strokeOpacity=0;fillOpacity=0;fillColor=#ffffff;strokeWidth=1.5;" vertex="1" parent="1">
            <mxGeometry x="675" y="622" width="180" height="47" as="geometry" />
          </mxCell>
        </UserObject>
        <UserObject label="オリジンサーバー" lucidchartObjectId="wR--GwGASWf9" id="2fJ8lrKolZrC7D9zkcL9-18">
          <mxCell style="html=1;overflow=block;blockSpacing=1;whiteSpace=wrap;fontSize=13;fontFamily=Lucid JP;fontColor=default;align=center;spacing=3.8;strokeOpacity=0;fillOpacity=0;fillColor=#ffffff;strokeWidth=1.5;" vertex="1" parent="1">
            <mxGeometry x="623" y="404" width="180" height="47" as="geometry" />
          </mxCell>
        </UserObject>
        <UserObject label="Amazon EC2" lucidchartObjectId="0R--FJ5bTZMB" id="2fJ8lrKolZrC7D9zkcL9-19">
          <mxCell style="html=1;overflow=block;blockSpacing=1;whiteSpace=wrap;shape=mxgraph.aws4.resourceIcon;resIcon=mxgraph.aws4.ec2;verticalLabelPosition=bottom;align=center;verticalAlign=top;strokeColor=#ffffff;pointerEvents=1;fontSize=13;fontFamily=Lucid JP;fontColor=default;spacing=0;strokeOpacity=0;fillColor=#d86613;strokeWidth=1.5;" vertex="1" parent="1">
            <mxGeometry x="900" y="428" width="90" height="90" as="geometry" />
          </mxCell>
        </UserObject>
        <UserObject label="HTTPS通信" lucidchartObjectId="-S--Pyy3Ijgv" id="2fJ8lrKolZrC7D9zkcL9-20">
          <mxCell style="html=1;overflow=block;blockSpacing=1;whiteSpace=wrap;fontSize=13;fontFamily=Lucid JP;fontColor=default;align=center;spacing=3.8;strokeOpacity=0;fillOpacity=0;fillColor=#ffffff;strokeWidth=1.5;" vertex="1" parent="1">
            <mxGeometry x="600" y="480" width="180" height="47" as="geometry" />
          </mxCell>
        </UserObject>
      </root>
    </mxGraphModel>
  </diagram>
</mxfile>
